<?xml version="1.0" encoding="UTF-8" standalone="no"?>
<!DOCTYPE svg PUBLIC "-//W3C//DTD SVG 1.1//EN"
 "http://www.w3.org/Graphics/SVG/1.1/DTD/svg11.dtd">
<!-- Generated by graphviz version 2.44.0 (20200408.0750)
 -->
<!-- Title: r&#45;nacos Pages: 1 -->
<svg width="968pt" height="865pt"
 viewBox="0.00 0.00 968.00 865.00" xmlns="http://www.w3.org/2000/svg" xmlns:xlink="http://www.w3.org/1999/xlink">
<g id="graph0" class="graph" transform="scale(1 1) rotate(0) translate(144 721)">
<title>r&#45;nacos</title>
<polygon fill="white" stroke="transparent" points="-144,144 -144,-721 824,-721 824,144 -144,144"/>
<text text-anchor="middle" x="340" y="-9" font-family="Sans-Serif" font-size="15.00" fill="#2d3436">r&#45;nacos</text>
<g id="clust1" class="cluster">
<title>cluster_r&#45;nacos system</title>
<path fill="#e5f5fd" stroke="#aeb6be" d="M20,-33C20,-33 660,-33 660,-33 666,-33 672,-39 672,-45 672,-45 672,-425 672,-425 672,-431 666,-437 660,-437 660,-437 20,-437 20,-437 14,-437 8,-431 8,-425 8,-425 8,-45 8,-45 8,-39 14,-33 20,-33"/>
<text text-anchor="middle" x="56.5" y="-423.4" font-family="Sans-Serif" font-size="12.00" fill="#2d3436">r&#45;nacos system</text>
</g>
<!-- c828fdf1d93b44c8bce9d887e3999273 -->
<g id="node1" class="node">
<title>c828fdf1d93b44c8bce9d887e3999273</title>
<path fill="#104e8b" stroke="black" d="M191.5,-577C191.5,-577 28.5,-577 28.5,-577 22.5,-577 16.5,-571 16.5,-565 16.5,-565 16.5,-474 16.5,-474 16.5,-468 22.5,-462 28.5,-462 28.5,-462 191.5,-462 191.5,-462 197.5,-462 203.5,-468 203.5,-474 203.5,-474 203.5,-565 203.5,-565 203.5,-571 197.5,-577 191.5,-577"/>
<text text-anchor="start" x="73.5" y="-537.9" font-family="Sans-Serif" font-weight="bold" font-size="12.00" fill="white">开发、管理员</text>
<text text-anchor="start" x="93" y="-528.3" font-family="Sans-Serif" font-size="9.00" fill="white">[Person]</text>
<text text-anchor="start" x="41.5" y="-505.5" font-family="Sans-Serif" font-size="10.00" fill="white">管理rnacos配置、注册中心信息</text>
</g>
<!-- 26efad07aaa24cd6b7705624338bef04 -->
<g id="node6" class="node">
<title>26efad07aaa24cd6b7705624338bef04</title>
<polygon fill="#1874cd" stroke="black" points="203.5,-408 16.5,-408 16.5,-293 203.5,-293 203.5,-408"/>
<text text-anchor="start" x="66" y="-368.9" font-family="Sans-Serif" font-weight="bold" font-size="12.00" fill="white">rnacos控制后台</text>
<text text-anchor="start" x="87" y="-359.3" font-family="Sans-Serif" font-size="9.00" fill="white">[Container]</text>
<text text-anchor="start" x="47" y="-336.5" font-family="Sans-Serif" font-size="10.00" fill="white">提供web后台管理rnacos数据</text>
</g>
<!-- c828fdf1d93b44c8bce9d887e3999273&#45;&gt;26efad07aaa24cd6b7705624338bef04 -->
<g id="edge5" class="edge">
<title>c828fdf1d93b44c8bce9d887e3999273&#45;&gt;26efad07aaa24cd6b7705624338bef04</title>
<path fill="none" stroke="#7b8894" d="M110,-461.96C110,-448.03 110,-432.97 110,-418.59"/>
<polygon fill="#7b8894" stroke="#7b8894" points="113.5,-418.26 110,-408.26 106.5,-418.26 113.5,-418.26"/>
</g>
<!-- f2ce06f6c8054665a49f3f115ad42c24 -->
<g id="node2" class="node">
<title>f2ce06f6c8054665a49f3f115ad42c24</title>
<polygon fill="#999999" stroke="black" points="423,-555.5 279,-555.5 279,-483.5 423,-483.5 423,-555.5"/>
<text text-anchor="start" x="296.5" y="-521.4" font-family="Sans-Serif" font-weight="bold" font-size="12.00" fill="white">使用配置中心的应用</text>
<text text-anchor="start" x="315.5" y="-511.8" font-family="Sans-Serif" font-size="9.00" fill="white">[External System]</text>
</g>
<!-- 7ed43fcb5b01468ab14abe8137db6704 -->
<g id="node4" class="node">
<title>7ed43fcb5b01468ab14abe8137db6704</title>
<polygon fill="#1874cd" stroke="black" points="663.5,-408 476.5,-408 476.5,-293 663.5,-293 663.5,-408"/>
<text text-anchor="start" x="515" y="-368.9" font-family="Sans-Serif" font-weight="bold" font-size="12.00" fill="white">HTTP OpenApi服务</text>
<text text-anchor="start" x="521" y="-359.3" font-family="Sans-Serif" font-size="9.00" fill="white">[Container: 1.x版本协议]</text>
<text text-anchor="start" x="522.5" y="-336.5" font-family="Sans-Serif" font-size="10.00" fill="white">通过http接口提供服务</text>
</g>
<!-- f2ce06f6c8054665a49f3f115ad42c24&#45;&gt;7ed43fcb5b01468ab14abe8137db6704 -->
<g id="edge1" class="edge">
<title>f2ce06f6c8054665a49f3f115ad42c24&#45;&gt;7ed43fcb5b01468ab14abe8137db6704</title>
<path fill="none" stroke="#7b8894" d="M396.91,-483.49C423.16,-463.47 456.87,-437.77 487.56,-414.36"/>
<polygon fill="#7b8894" stroke="#7b8894" points="489.88,-417 495.71,-408.15 485.63,-411.43 489.88,-417"/>
</g>
<!-- e92ce8b1e5fa4393b84d21b06c455335 -->
<g id="node5" class="node">
<title>e92ce8b1e5fa4393b84d21b06c455335</title>
<polygon fill="#1874cd" stroke="black" points="433.5,-408 246.5,-408 246.5,-293 433.5,-293 433.5,-408"/>
<text text-anchor="start" x="298" y="-368.9" font-family="Sans-Serif" font-weight="bold" font-size="12.00" fill="white">GRPC接口服务</text>
<text text-anchor="start" x="291" y="-359.3" font-family="Sans-Serif" font-size="9.00" fill="white">[Container: 2.x版本协议]</text>
<text text-anchor="start" x="291.5" y="-336.5" font-family="Sans-Serif" font-size="10.00" fill="white">通过grpc接口提供服务</text>
</g>
<!-- f2ce06f6c8054665a49f3f115ad42c24&#45;&gt;e92ce8b1e5fa4393b84d21b06c455335 -->
<g id="edge2" class="edge">
<title>f2ce06f6c8054665a49f3f115ad42c24&#45;&gt;e92ce8b1e5fa4393b84d21b06c455335</title>
<path fill="none" stroke="#7b8894" d="M348.69,-483.49C347.45,-464.58 345.87,-440.59 344.4,-418.27"/>
<polygon fill="#7b8894" stroke="#7b8894" points="347.88,-417.9 343.73,-408.15 340.9,-418.36 347.88,-417.9"/>
</g>
<!-- fc3e9c8504b04ff39f72a5ca41e05c66 -->
<g id="node3" class="node">
<title>fc3e9c8504b04ff39f72a5ca41e05c66</title>
<polygon fill="#999999" stroke="black" points="631,-555.5 487,-555.5 487,-483.5 631,-483.5 631,-555.5"/>
<text text-anchor="start" x="504.5" y="-521.4" font-family="Sans-Serif" font-weight="bold" font-size="12.00" fill="white">使用注册中心的应用</text>
<text text-anchor="start" x="523.5" y="-511.8" font-family="Sans-Serif" font-size="9.00" fill="white">[External System]</text>
</g>
<!-- fc3e9c8504b04ff39f72a5ca41e05c66&#45;&gt;7ed43fcb5b01468ab14abe8137db6704 -->
<g id="edge3" class="edge">
<title>fc3e9c8504b04ff39f72a5ca41e05c66&#45;&gt;7ed43fcb5b01468ab14abe8137db6704</title>
<path fill="none" stroke="#7b8894" d="M561.31,-483.49C562.55,-464.58 564.13,-440.59 565.6,-418.27"/>
<polygon fill="#7b8894" stroke="#7b8894" points="569.1,-418.36 566.27,-408.15 562.12,-417.9 569.1,-418.36"/>
</g>
<!-- fc3e9c8504b04ff39f72a5ca41e05c66&#45;&gt;e92ce8b1e5fa4393b84d21b06c455335 -->
<g id="edge4" class="edge">
<title>fc3e9c8504b04ff39f72a5ca41e05c66&#45;&gt;e92ce8b1e5fa4393b84d21b06c455335</title>
<path fill="none" stroke="#7b8894" d="M513.09,-483.49C486.84,-463.47 453.13,-437.77 422.44,-414.36"/>
<polygon fill="#7b8894" stroke="#7b8894" points="424.37,-411.43 414.29,-408.15 420.12,-417 424.37,-411.43"/>
</g>
<!-- b62b1ef0383844e8ba6fe873644d7df1 -->
<g id="node8" class="node">
<title>b62b1ef0383844e8ba6fe873644d7df1</title>
<polygon fill="#1874cd" stroke="black" stroke-width="0" points="390,-239 246,-239 246,-167 390,-167 390,-239"/>
<text text-anchor="start" x="293.5" y="-204.9" font-family="Sans-Serif" font-weight="bold" font-size="12.00" fill="white">配置中心</text>
<text text-anchor="start" x="291.5" y="-195.3" font-family="Sans-Serif" font-size="9.00" fill="white">[Component]</text>
</g>
<!-- 7ed43fcb5b01468ab14abe8137db6704&#45;&gt;b62b1ef0383844e8ba6fe873644d7df1 -->
<g id="edge7" class="edge">
<title>7ed43fcb5b01468ab14abe8137db6704&#45;&gt;b62b1ef0383844e8ba6fe873644d7df1</title>
<path fill="none" stroke="#7b8894" d="M476.16,-295.32C446.74,-278.33 414.82,-259.9 387.4,-244.07"/>
<polygon fill="#7b8894" stroke="#7b8894" points="389.08,-241 378.67,-239.03 385.58,-247.06 389.08,-241"/>
</g>
<!-- 47f531a4e2b942008a6659d6b814aafa -->
<g id="node9" class="node">
<title>47f531a4e2b942008a6659d6b814aafa</title>
<polygon fill="#1874cd" stroke="black" stroke-width="0" points="577,-239 433,-239 433,-167 577,-167 577,-239"/>
<text text-anchor="start" x="480.5" y="-204.9" font-family="Sans-Serif" font-weight="bold" font-size="12.00" fill="white">注册中心</text>
<text text-anchor="start" x="478.5" y="-195.3" font-family="Sans-Serif" font-size="9.00" fill="white">[Component]</text>
</g>
<!-- 7ed43fcb5b01468ab14abe8137db6704&#45;&gt;47f531a4e2b942008a6659d6b814aafa -->
<g id="edge10" class="edge">
<title>7ed43fcb5b01468ab14abe8137db6704&#45;&gt;47f531a4e2b942008a6659d6b814aafa</title>
<path fill="none" stroke="#7b8894" d="M544.68,-292.83C538.14,-278.18 531.18,-262.61 524.95,-248.67"/>
<polygon fill="#7b8894" stroke="#7b8894" points="528.05,-247.01 520.77,-239.31 521.66,-249.86 528.05,-247.01"/>
</g>
<!-- e92ce8b1e5fa4393b84d21b06c455335&#45;&gt;b62b1ef0383844e8ba6fe873644d7df1 -->
<g id="edge8" class="edge">
<title>e92ce8b1e5fa4393b84d21b06c455335&#45;&gt;b62b1ef0383844e8ba6fe873644d7df1</title>
<path fill="none" stroke="#7b8894" d="M331.43,-292.83C329.26,-278.46 326.95,-263.21 324.88,-249.47"/>
<polygon fill="#7b8894" stroke="#7b8894" points="328.29,-248.67 323.34,-239.31 321.37,-249.72 328.29,-248.67"/>
</g>
<!-- e92ce8b1e5fa4393b84d21b06c455335&#45;&gt;47f531a4e2b942008a6659d6b814aafa -->
<g id="edge11" class="edge">
<title>e92ce8b1e5fa4393b84d21b06c455335&#45;&gt;47f531a4e2b942008a6659d6b814aafa</title>
<path fill="none" stroke="#7b8894" d="M404.27,-292.83C421.84,-277.33 440.58,-260.81 457.06,-246.27"/>
<polygon fill="#7b8894" stroke="#7b8894" points="459.78,-248.54 464.96,-239.31 455.15,-243.29 459.78,-248.54"/>
</g>
<!-- 152444ca71fd4daea9eb2bd438f38606 -->
<g id="node7" class="node">
<title>152444ca71fd4daea9eb2bd438f38606</title>
<polygon fill="#1874cd" stroke="black" stroke-width="0" points="182,-239 38,-239 38,-167 182,-167 182,-239"/>
<text text-anchor="start" x="79.5" y="-204.9" font-family="Sans-Serif" font-weight="bold" font-size="12.00" fill="white">控制台前端</text>
<text text-anchor="start" x="39.5" y="-195.3" font-family="Sans-Serif" font-size="9.00" fill="white">[Component: rnacos&#45;console&#45;web]</text>
</g>
<!-- 26efad07aaa24cd6b7705624338bef04&#45;&gt;152444ca71fd4daea9eb2bd438f38606 -->
<g id="edge6" class="edge">
<title>26efad07aaa24cd6b7705624338bef04&#45;&gt;152444ca71fd4daea9eb2bd438f38606</title>
<path fill="none" stroke="#7b8894" d="M110,-292.83C110,-278.46 110,-263.21 110,-249.47"/>
<polygon fill="#7b8894" stroke="#7b8894" points="113.5,-249.31 110,-239.31 106.5,-249.31 113.5,-249.31"/>
</g>
<!-- 26efad07aaa24cd6b7705624338bef04&#45;&gt;b62b1ef0383844e8ba6fe873644d7df1 -->
<g id="edge9" class="edge">
<title>26efad07aaa24cd6b7705624338bef04&#45;&gt;b62b1ef0383844e8ba6fe873644d7df1</title>
<path fill="none" stroke="#7b8894" d="M191.01,-292.83C213.87,-276.84 238.29,-259.76 259.55,-244.89"/>
<polygon fill="#7b8894" stroke="#7b8894" points="261.65,-247.69 267.83,-239.09 257.63,-241.96 261.65,-247.69"/>
</g>
<!-- 26efad07aaa24cd6b7705624338bef04&#45;&gt;47f531a4e2b942008a6659d6b814aafa -->
<g id="edge12" class="edge">
<title>26efad07aaa24cd6b7705624338bef04&#45;&gt;47f531a4e2b942008a6659d6b814aafa</title>
<path fill="none" stroke="#7b8894" d="M203.54,-301.89C210.74,-298.74 217.95,-295.73 225,-293 305.27,-261.9 329.28,-266.04 411,-239 415,-237.68 419.08,-236.29 423.2,-234.87"/>
<polygon fill="#7b8894" stroke="#7b8894" points="424.55,-238.1 432.83,-231.48 422.23,-231.5 424.55,-238.1"/>
</g>
<!-- 9d0828cac93840a9a113ef94c0cc674e -->
<g id="node10" class="node">
<title>9d0828cac93840a9a113ef94c0cc674e</title>
<polygon fill="#1874cd" stroke="black" stroke-width="0" points="390,-113 246,-113 246,-41 390,-41 390,-113"/>
<text text-anchor="start" x="296.5" y="-78.9" font-family="Sans-Serif" font-weight="bold" font-size="12.00" fill="white">raft协议</text>
<text text-anchor="start" x="263.5" y="-69.3" font-family="Sans-Serif" font-size="9.00" fill="white">[Component: raft+local file]</text>
</g>
<!-- b62b1ef0383844e8ba6fe873644d7df1&#45;&gt;9d0828cac93840a9a113ef94c0cc674e -->
<g id="edge13" class="edge">
<title>b62b1ef0383844e8ba6fe873644d7df1&#45;&gt;9d0828cac93840a9a113ef94c0cc674e</title>
<path fill="none" stroke="#7b8894" d="M318,-166.8C318,-153.32 318,-137.74 318,-123.43"/>
<polygon fill="#7b8894" stroke="#7b8894" points="321.5,-123.29 318,-113.29 314.5,-123.29 321.5,-123.29"/>
</g>
<!-- f65f85aa39ed4a378e146ad5e63b2310 -->
<g id="node11" class="node">
<title>f65f85aa39ed4a378e146ad5e63b2310</title>
<polygon fill="#1874cd" stroke="black" stroke-width="0" points="577,-113 433,-113 433,-41 577,-41 577,-113"/>
<text text-anchor="start" x="471.5" y="-78.9" font-family="Sans-Serif" font-weight="bold" font-size="12.00" fill="white">类dirtro协议</text>
<text text-anchor="start" x="478.5" y="-69.3" font-family="Sans-Serif" font-size="9.00" fill="white">[Component]</text>
</g>
<!-- 47f531a4e2b942008a6659d6b814aafa&#45;&gt;f65f85aa39ed4a378e146ad5e63b2310 -->
<g id="edge14" class="edge">
<title>47f531a4e2b942008a6659d6b814aafa&#45;&gt;f65f85aa39ed4a378e146ad5e63b2310</title>
<path fill="none" stroke="#7b8894" d="M505,-166.8C505,-153.32 505,-137.74 505,-123.43"/>
<polygon fill="#7b8894" stroke="#7b8894" points="508.5,-123.29 505,-113.29 501.5,-123.29 508.5,-123.29"/>
</g>
</g>
</svg>
