<?xml version="1.0" encoding="UTF-8" standalone="no"?>
<!DOCTYPE svg PUBLIC "-//W3C//DTD SVG 1.1//EN"
 "http://www.w3.org/Graphics/SVG/1.1/DTD/svg11.dtd">
<!-- Generated by graphviz version 2.44.0 (20200408.0750)
 -->
<!-- Pages: 1 -->
<svg width="2398pt" height="896pt"
 viewBox="0.00 0.00 2398.00 896.00" xmlns="http://www.w3.org/2000/svg" xmlns:xlink="http://www.w3.org/1999/xlink">
<g id="graph0" class="graph" transform="scale(1 1) rotate(0) translate(144 752)">
<polygon fill="white" stroke="transparent" points="-144,144 -144,-752 2254,-752 2254,144 -144,144"/>
<g id="clust1" class="cluster">
<title>cluster_配置缓存</title>
<path fill="#e5f5fd" stroke="#aeb6be" d="M20,-8C20,-8 258,-8 258,-8 264,-8 270,-14 270,-20 270,-20 270,-303 270,-303 270,-309 264,-315 258,-315 258,-315 20,-315 20,-315 14,-315 8,-309 8,-303 8,-303 8,-20 8,-20 8,-14 14,-8 20,-8"/>
<text text-anchor="middle" x="40.5" y="-301.4" font-family="Sans-Serif" font-size="12.00" fill="#2d3436">配置缓存</text>
</g>
<g id="clust2" class="cluster">
<title>cluster_查询索引</title>
<path fill="#e5f5fd" stroke="#aeb6be" d="M295,-8C295,-8 576,-8 576,-8 582,-8 588,-14 588,-20 588,-20 588,-303 588,-303 588,-309 582,-315 576,-315 576,-315 295,-315 295,-315 289,-315 283,-309 283,-303 283,-303 283,-20 283,-20 283,-14 289,-8 295,-8"/>
<text text-anchor="middle" x="315.5" y="-301.4" font-family="Sans-Serif" font-size="12.00" fill="#2d3436">查询索引</text>
</g>
<g id="clust3" class="cluster">
<title>cluster_HTTP长链接监听</title>
<path fill="#e5f5fd" stroke="#aeb6be" d="M608,-8C608,-8 1182,-8 1182,-8 1188,-8 1194,-14 1194,-20 1194,-20 1194,-303 1194,-303 1194,-309 1188,-315 1182,-315 1182,-315 608,-315 608,-315 602,-315 596,-309 596,-303 596,-303 596,-20 596,-20 596,-14 602,-8 608,-8"/>
<text text-anchor="middle" x="650.5" y="-301.4" font-family="Sans-Serif" font-size="12.00" fill="#2d3436">HTTP长链接监听</text>
</g>
<g id="clust4" class="cluster">
<title>cluster_grpc监听</title>
<path fill="#e5f5fd" stroke="#aeb6be" d="M1233,-8C1233,-8 1801,-8 1801,-8 1807,-8 1813,-14 1813,-20 1813,-20 1813,-303 1813,-303 1813,-309 1807,-315 1801,-315 1801,-315 1233,-315 1233,-315 1227,-315 1221,-309 1221,-303 1221,-303 1221,-20 1221,-20 1221,-14 1227,-8 1233,-8"/>
<text text-anchor="middle" x="1253" y="-301.4" font-family="Sans-Serif" font-size="12.00" fill="#2d3436">grpc监听</text>
</g>
<g id="clust5" class="cluster">
<title>cluster_持久化</title>
<path fill="#e5f5fd" stroke="#aeb6be" d="M1852,-8C1852,-8 2090,-8 2090,-8 2096,-8 2102,-14 2102,-20 2102,-20 2102,-303 2102,-303 2102,-309 2096,-315 2090,-315 2090,-315 1852,-315 1852,-315 1846,-315 1840,-309 1840,-303 1840,-303 1840,-20 1840,-20 1840,-14 1846,-8 1852,-8"/>
<text text-anchor="middle" x="1866.5" y="-301.4" font-family="Sans-Serif" font-size="12.00" fill="#2d3436">持久化</text>
</g>
<!-- a1ab9d1c2f8740fb9a34f71e0092052e -->
<g id="node1" class="node">
<title>a1ab9d1c2f8740fb9a34f71e0092052e</title>
<path fill="#5f76d2" stroke="black" stroke-width="0" d="M861.5,-608C861.5,-608 784.5,-608 784.5,-608 778.5,-608 772.5,-602 772.5,-596 772.5,-596 772.5,-519 772.5,-519 772.5,-513 778.5,-507 784.5,-507 784.5,-507 861.5,-507 861.5,-507 867.5,-507 873.5,-513 873.5,-519 873.5,-519 873.5,-596 873.5,-596 873.5,-602 867.5,-608 861.5,-608"/>
<text text-anchor="start" x="776.5" y="-554.8" font-family="Sans-Serif" font-weight="bold" font-size="14.00" fill="#ffffff">HTTP Request</text>
</g>
<!-- 1efb657a3c804e0285f20a41e33db805 -->
<g id="node3" class="node">
<title>1efb657a3c804e0285f20a41e33db805</title>
<path fill="#5f76d2" stroke="black" stroke-width="0" d="M933.5,-452C933.5,-452 856.5,-452 856.5,-452 850.5,-452 844.5,-446 844.5,-440 844.5,-440 844.5,-363 844.5,-363 844.5,-357 850.5,-351 856.5,-351 856.5,-351 933.5,-351 933.5,-351 939.5,-351 945.5,-357 945.5,-363 945.5,-363 945.5,-440 945.5,-440 945.5,-446 939.5,-452 933.5,-452"/>
<text text-anchor="start" x="855.5" y="-398.8" font-family="Sans-Serif" font-weight="bold" font-size="14.00" fill="#ffffff">ConfigActor</text>
</g>
<!-- a1ab9d1c2f8740fb9a34f71e0092052e&#45;&gt;1efb657a3c804e0285f20a41e33db805 -->
<g id="edge17" class="edge">
<title>a1ab9d1c2f8740fb9a34f71e0092052e&#45;&gt;1efb657a3c804e0285f20a41e33db805</title>
<path fill="none" stroke="#7b8894" d="M859,-506.85C859,-506.85 859,-462.16 859,-462.16"/>
<polygon fill="#7b8894" stroke="#7b8894" points="862.5,-462.16 859,-452.16 855.5,-462.16 862.5,-462.16"/>
</g>
<!-- f93d77f1e66a4b068c0c7e59a5fa1d77 -->
<g id="node2" class="node">
<title>f93d77f1e66a4b068c0c7e59a5fa1d77</title>
<path fill="#5f76d2" stroke="black" stroke-width="0" d="M1005.5,-608C1005.5,-608 928.5,-608 928.5,-608 922.5,-608 916.5,-602 916.5,-596 916.5,-596 916.5,-519 916.5,-519 916.5,-513 922.5,-507 928.5,-507 928.5,-507 1005.5,-507 1005.5,-507 1011.5,-507 1017.5,-513 1017.5,-519 1017.5,-519 1017.5,-596 1017.5,-596 1017.5,-602 1011.5,-608 1005.5,-608"/>
<text text-anchor="start" x="918.5" y="-554.8" font-family="Sans-Serif" font-weight="bold" font-size="14.00" fill="#ffffff">GRPC Reqeust</text>
</g>
<!-- f93d77f1e66a4b068c0c7e59a5fa1d77&#45;&gt;1efb657a3c804e0285f20a41e33db805 -->
<g id="edge18" class="edge">
<title>f93d77f1e66a4b068c0c7e59a5fa1d77&#45;&gt;1efb657a3c804e0285f20a41e33db805</title>
<path fill="none" stroke="#7b8894" d="M931,-506.85C931,-506.85 931,-462.16 931,-462.16"/>
<polygon fill="#7b8894" stroke="#7b8894" points="934.5,-462.16 931,-452.16 927.5,-462.16 934.5,-462.16"/>
</g>
<!-- cf983f045a6c4acbb6e2faee0f162243 -->
<g id="node4" class="node">
<title>cf983f045a6c4acbb6e2faee0f162243</title>
<path fill="#5f76d2" stroke="black" stroke-width="0" d="M236.5,-286C236.5,-286 109.5,-286 109.5,-286 103.5,-286 97.5,-280 97.5,-274 97.5,-274 97.5,-197 97.5,-197 97.5,-191 103.5,-185 109.5,-185 109.5,-185 236.5,-185 236.5,-185 242.5,-185 248.5,-191 248.5,-197 248.5,-197 248.5,-274 248.5,-274 248.5,-280 242.5,-286 236.5,-286"/>
<text text-anchor="start" x="117" y="-232.8" font-family="Sans-Serif" font-weight="bold" font-size="14.00" fill="#ffffff">ConfigCacheMap</text>
</g>
<!-- 1efb657a3c804e0285f20a41e33db805&#45;&gt;cf983f045a6c4acbb6e2faee0f162243 -->
<g id="edge19" class="edge">
<title>1efb657a3c804e0285f20a41e33db805&#45;&gt;cf983f045a6c4acbb6e2faee0f162243</title>
<path fill="none" stroke="#7b8894" d="M844.23,-418C679.89,-418 173,-418 173,-418 173,-418 173,-296.34 173,-296.34"/>
<polygon fill="#7b8894" stroke="#7b8894" points="176.5,-296.34 173,-286.34 169.5,-296.34 176.5,-296.34"/>
</g>
<!-- 4dc5d79f1a9549d996deb1af65bcc7bd -->
<g id="node7" class="node">
<title>4dc5d79f1a9549d996deb1af65bcc7bd</title>
<path fill="#5f76d2" stroke="black" stroke-width="0" d="M567.5,-286C567.5,-286 490.5,-286 490.5,-286 484.5,-286 478.5,-280 478.5,-274 478.5,-274 478.5,-197 478.5,-197 478.5,-191 484.5,-185 490.5,-185 490.5,-185 567.5,-185 567.5,-185 573.5,-185 579.5,-191 579.5,-197 579.5,-197 579.5,-274 579.5,-274 579.5,-280 573.5,-286 567.5,-286"/>
<text text-anchor="start" x="489" y="-248.8" font-family="Sans-Serif" font-weight="bold" font-size="14.00" fill="#ffffff">TenantIndex</text>
<text text-anchor="start" x="503" y="-226.2" font-family="Sans-Serif" font-size="11.00" fill="#ffffff">[内存索引]</text>
<text text-anchor="start" x="486.5" y="-215.2" font-family="Sans-Serif" font-size="11.00" fill="#ffffff">[支持控制台查询]</text>
</g>
<!-- 1efb657a3c804e0285f20a41e33db805&#45;&gt;4dc5d79f1a9549d996deb1af65bcc7bd -->
<g id="edge20" class="edge">
<title>1efb657a3c804e0285f20a41e33db805&#45;&gt;4dc5d79f1a9549d996deb1af65bcc7bd</title>
<path fill="none" stroke="#7b8894" d="M844.49,-384C744.09,-384 529,-384 529,-384 529,-384 529,-296.19 529,-296.19"/>
<polygon fill="#7b8894" stroke="#7b8894" points="532.5,-296.19 529,-286.19 525.5,-296.19 532.5,-296.19"/>
</g>
<!-- 4592a99a2436445b9f5b40616ffc8150 -->
<g id="node10" class="node">
<title>4592a99a2436445b9f5b40616ffc8150</title>
<path fill="#5f76d2" stroke="black" stroke-width="0" d="M933.5,-286C933.5,-286 856.5,-286 856.5,-286 850.5,-286 844.5,-280 844.5,-274 844.5,-274 844.5,-197 844.5,-197 844.5,-191 850.5,-185 856.5,-185 856.5,-185 933.5,-185 933.5,-185 939.5,-185 945.5,-191 945.5,-197 945.5,-197 945.5,-274 945.5,-274 945.5,-280 939.5,-286 933.5,-286"/>
<text text-anchor="start" x="847" y="-232.8" font-family="Sans-Serif" font-weight="bold" font-size="14.00" fill="#ffffff">ConfigListener</text>
</g>
<!-- 1efb657a3c804e0285f20a41e33db805&#45;&gt;4592a99a2436445b9f5b40616ffc8150 -->
<g id="edge6" class="edge">
<title>1efb657a3c804e0285f20a41e33db805&#45;&gt;4592a99a2436445b9f5b40616ffc8150</title>
<path fill="none" stroke="#7b8894" d="M895,-350.79C895,-350.79 895,-296.18 895,-296.18"/>
<polygon fill="#7b8894" stroke="#7b8894" points="898.5,-296.18 895,-286.18 891.5,-296.18 898.5,-296.18"/>
</g>
<!-- 306ff0ea03fb4ac88800b9eb85d72b48 -->
<g id="node14" class="node">
<title>306ff0ea03fb4ac88800b9eb85d72b48</title>
<path fill="#5f76d2" stroke="black" stroke-width="0" d="M1450.5,-286C1450.5,-286 1373.5,-286 1373.5,-286 1367.5,-286 1361.5,-280 1361.5,-274 1361.5,-274 1361.5,-197 1361.5,-197 1361.5,-191 1367.5,-185 1373.5,-185 1373.5,-185 1450.5,-185 1450.5,-185 1456.5,-185 1462.5,-191 1462.5,-197 1462.5,-197 1462.5,-274 1462.5,-274 1462.5,-280 1456.5,-286 1450.5,-286"/>
<text text-anchor="start" x="1376.5" y="-232.8" font-family="Sans-Serif" font-weight="bold" font-size="14.00" fill="#ffffff">Subscriber</text>
</g>
<!-- 1efb657a3c804e0285f20a41e33db805&#45;&gt;306ff0ea03fb4ac88800b9eb85d72b48 -->
<g id="edge10" class="edge">
<title>1efb657a3c804e0285f20a41e33db805&#45;&gt;306ff0ea03fb4ac88800b9eb85d72b48</title>
<path fill="none" stroke="#7b8894" d="M945.51,-384C1075.6,-384 1412,-384 1412,-384 1412,-384 1412,-296.19 1412,-296.19"/>
<polygon fill="#7b8894" stroke="#7b8894" points="1415.5,-296.19 1412,-286.19 1408.5,-296.19 1415.5,-296.19"/>
</g>
<!-- 5f82fcaae27c44afa9744768c7334a92 -->
<g id="node18" class="node">
<title>5f82fcaae27c44afa9744768c7334a92</title>
<path fill="#5f76d2" stroke="black" stroke-width="0" d="M1937.5,-286C1937.5,-286 1860.5,-286 1860.5,-286 1854.5,-286 1848.5,-280 1848.5,-274 1848.5,-274 1848.5,-197 1848.5,-197 1848.5,-191 1854.5,-185 1860.5,-185 1860.5,-185 1937.5,-185 1937.5,-185 1943.5,-185 1949.5,-191 1949.5,-197 1949.5,-197 1949.5,-274 1949.5,-274 1949.5,-280 1943.5,-286 1937.5,-286"/>
<text text-anchor="start" x="1867.5" y="-232.8" font-family="Sans-Serif" font-weight="bold" font-size="14.00" fill="#ffffff">ConfigDB</text>
</g>
<!-- 1efb657a3c804e0285f20a41e33db805&#45;&gt;5f82fcaae27c44afa9744768c7334a92 -->
<g id="edge16" class="edge">
<title>1efb657a3c804e0285f20a41e33db805&#45;&gt;5f82fcaae27c44afa9744768c7334a92</title>
<path fill="none" stroke="#7b8894" d="M945.82,-418C1149.92,-418 1899,-418 1899,-418 1899,-418 1899,-296.34 1899,-296.34"/>
<polygon fill="#7b8894" stroke="#7b8894" points="1902.5,-296.34 1899,-286.34 1895.5,-296.34 1902.5,-296.34"/>
</g>
<!-- 95544dc0a17e4523847d9dde0029097c -->
<g id="node5" class="node">
<title>95544dc0a17e4523847d9dde0029097c</title>
<path fill="#5f76d2" stroke="black" stroke-width="0" d="M105.5,-117C105.5,-117 28.5,-117 28.5,-117 22.5,-117 16.5,-111 16.5,-105 16.5,-105 16.5,-28 16.5,-28 16.5,-22 22.5,-16 28.5,-16 28.5,-16 105.5,-16 105.5,-16 111.5,-16 117.5,-22 117.5,-28 117.5,-28 117.5,-105 117.5,-105 117.5,-111 111.5,-117 105.5,-117"/>
<text text-anchor="start" x="33" y="-85.3" font-family="Sans-Serif" font-weight="bold" font-size="14.00" fill="#ffffff">ConfigKey</text>
<text text-anchor="start" x="51.5" y="-62.7" font-family="Sans-Serif" font-size="11.00" fill="#ffffff">tenant</text>
<text text-anchor="start" x="53" y="-51.7" font-family="Sans-Serif" font-size="11.00" fill="#ffffff">group</text>
<text text-anchor="start" x="49" y="-40.7" font-family="Sans-Serif" font-size="11.00" fill="#ffffff">data_id</text>
</g>
<!-- cf983f045a6c4acbb6e2faee0f162243&#45;&gt;95544dc0a17e4523847d9dde0029097c -->
<g id="edge1" class="edge">
<title>cf983f045a6c4acbb6e2faee0f162243&#45;&gt;95544dc0a17e4523847d9dde0029097c</title>
<path fill="none" stroke="#7b8894" d="M107.5,-184.79C107.5,-184.79 107.5,-127.17 107.5,-127.17"/>
<polygon fill="#7b8894" stroke="#7b8894" points="111,-127.17 107.5,-117.17 104,-127.17 111,-127.17"/>
</g>
<!-- a353626fcc2d44aea29df92d31f7be08 -->
<g id="node6" class="node">
<title>a353626fcc2d44aea29df92d31f7be08</title>
<path fill="#5f76d2" stroke="black" stroke-width="0" d="M249.5,-117C249.5,-117 172.5,-117 172.5,-117 166.5,-117 160.5,-111 160.5,-105 160.5,-105 160.5,-28 160.5,-28 160.5,-22 166.5,-16 172.5,-16 172.5,-16 249.5,-16 249.5,-16 255.5,-16 261.5,-22 261.5,-28 261.5,-28 261.5,-105 261.5,-105 261.5,-111 255.5,-117 249.5,-117"/>
<text text-anchor="start" x="171.5" y="-79.8" font-family="Sans-Serif" font-weight="bold" font-size="14.00" fill="#ffffff">ConfigValue</text>
<text text-anchor="start" x="193" y="-57.2" font-family="Sans-Serif" font-size="11.00" fill="#ffffff">content</text>
<text text-anchor="start" x="200" y="-46.2" font-family="Sans-Serif" font-size="11.00" fill="#ffffff">md5</text>
</g>
<!-- cf983f045a6c4acbb6e2faee0f162243&#45;&gt;a353626fcc2d44aea29df92d31f7be08 -->
<g id="edge2" class="edge">
<title>cf983f045a6c4acbb6e2faee0f162243&#45;&gt;a353626fcc2d44aea29df92d31f7be08</title>
<path fill="none" stroke="#7b8894" d="M204.5,-184.79C204.5,-184.79 204.5,-127.17 204.5,-127.17"/>
<polygon fill="#7b8894" stroke="#7b8894" points="208,-127.17 204.5,-117.17 201,-127.17 208,-127.17"/>
</g>
<!-- 1ce827329b544caea204dce8866abf58 -->
<g id="node8" class="node">
<title>1ce827329b544caea204dce8866abf58</title>
<path fill="#5f76d2" stroke="black" stroke-width="0" d="M380.5,-286C380.5,-286 303.5,-286 303.5,-286 297.5,-286 291.5,-280 291.5,-274 291.5,-274 291.5,-197 291.5,-197 291.5,-191 297.5,-185 303.5,-185 303.5,-185 380.5,-185 380.5,-185 386.5,-185 392.5,-191 392.5,-197 392.5,-197 392.5,-274 392.5,-274 392.5,-280 386.5,-286 380.5,-286"/>
<text text-anchor="start" x="302.5" y="-232.8" font-family="Sans-Serif" font-weight="bold" font-size="14.00" fill="#ffffff">ConfigIndex</text>
</g>
<!-- 4dc5d79f1a9549d996deb1af65bcc7bd&#45;&gt;1ce827329b544caea204dce8866abf58 -->
<g id="edge3" class="edge">
<title>4dc5d79f1a9549d996deb1af65bcc7bd&#45;&gt;1ce827329b544caea204dce8866abf58</title>
<path fill="none" stroke="#7b8894" d="M478.4,-252C478.4,-252 402.65,-252 402.65,-252"/>
<polygon fill="#7b8894" stroke="#7b8894" points="402.65,-248.5 392.65,-252 402.65,-255.5 402.65,-248.5"/>
</g>
<!-- a9665b5d55bc48528447b9189a1fc5c1 -->
<g id="node9" class="node">
<title>a9665b5d55bc48528447b9189a1fc5c1</title>
<path fill="#5f76d2" stroke="black" stroke-width="0" d="M470.5,-117C470.5,-117 393.5,-117 393.5,-117 387.5,-117 381.5,-111 381.5,-105 381.5,-105 381.5,-28 381.5,-28 381.5,-22 387.5,-16 393.5,-16 393.5,-16 470.5,-16 470.5,-16 476.5,-16 482.5,-22 482.5,-28 482.5,-28 482.5,-105 482.5,-105 482.5,-111 476.5,-117 470.5,-117"/>
<text text-anchor="start" x="398.5" y="-63.8" font-family="Sans-Serif" font-weight="bold" font-size="14.00" fill="#ffffff">BTreeMap</text>
</g>
<!-- 4dc5d79f1a9549d996deb1af65bcc7bd&#45;&gt;a9665b5d55bc48528447b9189a1fc5c1 -->
<g id="edge5" class="edge">
<title>4dc5d79f1a9549d996deb1af65bcc7bd&#45;&gt;a9665b5d55bc48528447b9189a1fc5c1</title>
<path fill="none" stroke="#7b8894" d="M478.42,-218C456.39,-218 435.5,-218 435.5,-218 435.5,-218 435.5,-127.37 435.5,-127.37"/>
<polygon fill="#7b8894" stroke="#7b8894" points="439,-127.37 435.5,-117.37 432,-127.37 439,-127.37"/>
</g>
<!-- 1ce827329b544caea204dce8866abf58&#45;&gt;a9665b5d55bc48528447b9189a1fc5c1 -->
<g id="edge4" class="edge">
<title>1ce827329b544caea204dce8866abf58&#45;&gt;a9665b5d55bc48528447b9189a1fc5c1</title>
<path fill="none" stroke="#7b8894" d="M387,-184.79C387,-184.79 387,-127.17 387,-127.17"/>
<polygon fill="#7b8894" stroke="#7b8894" points="390.5,-127.17 387,-117.17 383.5,-127.17 390.5,-127.17"/>
</g>
<!-- 7bf12ede000749be9b1a7bcad8864105 -->
<g id="node11" class="node">
<title>7bf12ede000749be9b1a7bcad8864105</title>
<path fill="#5f76d2" stroke="black" stroke-width="0" d="M750,-117C750,-117 616,-117 616,-117 610,-117 604,-111 604,-105 604,-105 604,-28 604,-28 604,-22 610,-16 616,-16 616,-16 750,-16 750,-16 756,-16 762,-22 762,-28 762,-28 762,-105 762,-105 762,-111 756,-117 750,-117"/>
<text text-anchor="start" x="643" y="-74.3" font-family="Sans-Serif" font-weight="bold" font-size="14.00" fill="#ffffff">listener Map</text>
<text text-anchor="start" x="621.5" y="-51.7" font-family="Sans-Serif" font-size="11.00" fill="#ffffff">[&lt;ConfigKey,Vec&lt;u64&gt;&gt;]</text>
</g>
<!-- 4592a99a2436445b9f5b40616ffc8150&#45;&gt;7bf12ede000749be9b1a7bcad8864105 -->
<g id="edge7" class="edge">
<title>4592a99a2436445b9f5b40616ffc8150&#45;&gt;7bf12ede000749be9b1a7bcad8864105</title>
<path fill="none" stroke="#7b8894" d="M844.49,-235C781.78,-235 683,-235 683,-235 683,-235 683,-127.06 683,-127.06"/>
<polygon fill="#7b8894" stroke="#7b8894" points="686.5,-127.06 683,-117.06 679.5,-127.06 686.5,-127.06"/>
</g>
<!-- 3ae6373b721a4a1eacb6f02234a66bff -->
<g id="node12" class="node">
<title>3ae6373b721a4a1eacb6f02234a66bff</title>
<path fill="#5f76d2" stroke="black" stroke-width="0" d="M973,-117C973,-117 817,-117 817,-117 811,-117 805,-111 805,-105 805,-105 805,-28 805,-28 805,-22 811,-16 817,-16 817,-16 973,-16 973,-16 979,-16 985,-22 985,-28 985,-28 985,-105 985,-105 985,-111 979,-117 973,-117"/>
<text text-anchor="start" x="837" y="-79.8" font-family="Sans-Serif" font-weight="bold" font-size="14.00" fill="#ffffff">time_listener Map</text>
<text text-anchor="start" x="828.5" y="-57.2" font-family="Sans-Serif" font-size="11.00" fill="#ffffff">[&lt;i64,Vec&lt;OnceListener&gt;&gt;]</text>
<text text-anchor="start" x="869" y="-46.2" font-family="Sans-Serif" font-size="11.00" fill="#ffffff">[超时返回]</text>
</g>
<!-- 4592a99a2436445b9f5b40616ffc8150&#45;&gt;3ae6373b721a4a1eacb6f02234a66bff -->
<g id="edge8" class="edge">
<title>4592a99a2436445b9f5b40616ffc8150&#45;&gt;3ae6373b721a4a1eacb6f02234a66bff</title>
<path fill="none" stroke="#7b8894" d="M895,-184.79C895,-184.79 895,-127.17 895,-127.17"/>
<polygon fill="#7b8894" stroke="#7b8894" points="898.5,-127.17 895,-117.17 891.5,-127.17 898.5,-127.17"/>
</g>
<!-- 03312fea64ec46fca214fc0b15d4b565 -->
<g id="node13" class="node">
<title>03312fea64ec46fca214fc0b15d4b565</title>
<path fill="#5f76d2" stroke="black" stroke-width="0" d="M1174,-117C1174,-117 1040,-117 1040,-117 1034,-117 1028,-111 1028,-105 1028,-105 1028,-28 1028,-28 1028,-22 1034,-16 1040,-16 1040,-16 1174,-16 1174,-16 1180,-16 1186,-22 1186,-28 1186,-28 1186,-105 1186,-105 1186,-111 1180,-117 1174,-117"/>
<text text-anchor="start" x="1069" y="-79.8" font-family="Sans-Serif" font-weight="bold" font-size="14.00" fill="#ffffff">sender Map</text>
<text text-anchor="start" x="1037.5" y="-57.2" font-family="Sans-Serif" font-size="11.00" fill="#ffffff">[&lt;u64,ListenerSenderType&gt;]</text>
<text text-anchor="start" x="1075.5" y="-46.2" font-family="Sans-Serif" font-size="11.00" fill="#ffffff">[监听发送器]</text>
</g>
<!-- 4592a99a2436445b9f5b40616ffc8150&#45;&gt;03312fea64ec46fca214fc0b15d4b565 -->
<g id="edge9" class="edge">
<title>4592a99a2436445b9f5b40616ffc8150&#45;&gt;03312fea64ec46fca214fc0b15d4b565</title>
<path fill="none" stroke="#7b8894" d="M945.51,-235C1008.22,-235 1107,-235 1107,-235 1107,-235 1107,-127.06 1107,-127.06"/>
<polygon fill="#7b8894" stroke="#7b8894" points="1110.5,-127.06 1107,-117.06 1103.5,-127.06 1110.5,-127.06"/>
</g>
<!-- c5d4bfa56cbc4dbfb6170c5ee08b860b -->
<g id="node15" class="node">
<title>c5d4bfa56cbc4dbfb6170c5ee08b860b</title>
<path fill="#5f76d2" stroke="black" stroke-width="0" d="M1375,-117C1375,-117 1241,-117 1241,-117 1235,-117 1229,-111 1229,-105 1229,-105 1229,-28 1229,-28 1229,-22 1235,-16 1241,-16 1241,-16 1375,-16 1375,-16 1381,-16 1387,-22 1387,-28 1387,-28 1387,-105 1387,-105 1387,-111 1381,-117 1375,-117"/>
<text text-anchor="start" x="1268" y="-79.8" font-family="Sans-Serif" font-weight="bold" font-size="14.00" fill="#ffffff">listener Map</text>
<text text-anchor="start" x="1244.5" y="-57.2" font-family="Sans-Serif" font-size="11.00" fill="#ffffff">[&lt;ConfigKey,ClientIdSet&gt;]</text>
<text text-anchor="start" x="1248.5" y="-46.2" font-family="Sans-Serif" font-size="11.00" fill="#ffffff">[配置变更通知监听列表]</text>
</g>
<!-- 306ff0ea03fb4ac88800b9eb85d72b48&#45;&gt;c5d4bfa56cbc4dbfb6170c5ee08b860b -->
<g id="edge11" class="edge">
<title>306ff0ea03fb4ac88800b9eb85d72b48&#45;&gt;c5d4bfa56cbc4dbfb6170c5ee08b860b</title>
<path fill="none" stroke="#7b8894" d="M1374.25,-184.79C1374.25,-184.79 1374.25,-127.17 1374.25,-127.17"/>
<polygon fill="#7b8894" stroke="#7b8894" points="1377.75,-127.17 1374.25,-117.17 1370.75,-127.17 1377.75,-127.17"/>
</g>
<!-- d82c4a16b22c4efdb547a2950f04f1b2 -->
<g id="node16" class="node">
<title>d82c4a16b22c4efdb547a2950f04f1b2</title>
<path fill="#5f76d2" stroke="black" stroke-width="0" d="M1591.5,-117C1591.5,-117 1442.5,-117 1442.5,-117 1436.5,-117 1430.5,-111 1430.5,-105 1430.5,-105 1430.5,-28 1430.5,-28 1430.5,-22 1436.5,-16 1442.5,-16 1442.5,-16 1591.5,-16 1591.5,-16 1597.5,-16 1603.5,-22 1603.5,-28 1603.5,-28 1603.5,-105 1603.5,-105 1603.5,-111 1597.5,-117 1591.5,-117"/>
<text text-anchor="start" x="1464.5" y="-79.8" font-family="Sans-Serif" font-weight="bold" font-size="14.00" fill="#ffffff">client_keys Map</text>
<text text-anchor="start" x="1453.5" y="-57.2" font-family="Sans-Serif" font-size="11.00" fill="#ffffff">[&lt;ClientId,ConfigKeySet&gt;]</text>
<text text-anchor="start" x="1446" y="-46.2" font-family="Sans-Serif" font-size="11.00" fill="#ffffff">[监听器断开后取消对应监听]</text>
</g>
<!-- 306ff0ea03fb4ac88800b9eb85d72b48&#45;&gt;d82c4a16b22c4efdb547a2950f04f1b2 -->
<g id="edge12" class="edge">
<title>306ff0ea03fb4ac88800b9eb85d72b48&#45;&gt;d82c4a16b22c4efdb547a2950f04f1b2</title>
<path fill="none" stroke="#7b8894" d="M1446.5,-184.79C1446.5,-184.79 1446.5,-127.17 1446.5,-127.17"/>
<polygon fill="#7b8894" stroke="#7b8894" points="1450,-127.17 1446.5,-117.17 1443,-127.17 1450,-127.17"/>
</g>
<!-- f8d27c06f42546c6ba93d2bcd817f009 -->
<g id="node17" class="node">
<title>f8d27c06f42546c6ba93d2bcd817f009</title>
<path fill="#5f76d2" stroke="black" stroke-width="0" d="M1793,-117C1793,-117 1659,-117 1659,-117 1653,-117 1647,-111 1647,-105 1647,-105 1647,-28 1647,-28 1647,-22 1653,-16 1659,-16 1659,-16 1793,-16 1793,-16 1799,-16 1805,-22 1805,-28 1805,-28 1805,-105 1805,-105 1805,-111 1799,-117 1793,-117"/>
<text text-anchor="start" x="1663.5" y="-74.3" font-family="Sans-Serif" font-weight="bold" font-size="14.00" fill="#ffffff">conn_manage addr</text>
<text text-anchor="start" x="1689" y="-51.7" font-family="Sans-Serif" font-size="11.00" fill="#ffffff">[变更通知通道]</text>
</g>
<!-- 306ff0ea03fb4ac88800b9eb85d72b48&#45;&gt;f8d27c06f42546c6ba93d2bcd817f009 -->
<g id="edge13" class="edge">
<title>306ff0ea03fb4ac88800b9eb85d72b48&#45;&gt;f8d27c06f42546c6ba93d2bcd817f009</title>
<path fill="none" stroke="#7b8894" d="M1462.8,-235C1551.67,-235 1726,-235 1726,-235 1726,-235 1726,-127.06 1726,-127.06"/>
<polygon fill="#7b8894" stroke="#7b8894" points="1729.5,-127.06 1726,-117.06 1722.5,-127.06 1729.5,-127.06"/>
</g>
<!-- 055212ec3f7d4de8a8e6d7c91c13454c -->
<g id="node19" class="node">
<title>055212ec3f7d4de8a8e6d7c91c13454c</title>
<path fill="#5f76d2" stroke="black" stroke-width="0" d="M1937.5,-117C1937.5,-117 1860.5,-117 1860.5,-117 1854.5,-117 1848.5,-111 1848.5,-105 1848.5,-105 1848.5,-28 1848.5,-28 1848.5,-22 1854.5,-16 1860.5,-16 1860.5,-16 1937.5,-16 1937.5,-16 1943.5,-16 1949.5,-22 1949.5,-28 1949.5,-28 1949.5,-105 1949.5,-105 1949.5,-111 1943.5,-117 1937.5,-117"/>
<text text-anchor="start" x="1881" y="-63.8" font-family="Sans-Serif" font-weight="bold" font-size="14.00" fill="#ffffff">sqlite</text>
</g>
<!-- 5f82fcaae27c44afa9744768c7334a92&#45;&gt;055212ec3f7d4de8a8e6d7c91c13454c -->
<g id="edge14" class="edge">
<title>5f82fcaae27c44afa9744768c7334a92&#45;&gt;055212ec3f7d4de8a8e6d7c91c13454c</title>
<path fill="none" stroke="#7b8894" d="M1899,-184.79C1899,-184.79 1899,-127.17 1899,-127.17"/>
<polygon fill="#7b8894" stroke="#7b8894" points="1902.5,-127.17 1899,-117.17 1895.5,-127.17 1902.5,-127.17"/>
<text text-anchor="middle" x="1925" y="-147.6" font-family="Sans-Serif" font-size="13.00" fill="#2d3436">当前使用</text>
</g>
<!-- 630e34ac3d1040358a775d9bfb3cbdd3 -->
<g id="node20" class="node">
<title>630e34ac3d1040358a775d9bfb3cbdd3</title>
<path fill="#5f76d2" stroke="black" stroke-width="0" d="M2081.5,-117C2081.5,-117 2004.5,-117 2004.5,-117 1998.5,-117 1992.5,-111 1992.5,-105 1992.5,-105 1992.5,-28 1992.5,-28 1992.5,-22 1998.5,-16 2004.5,-16 2004.5,-16 2081.5,-16 2081.5,-16 2087.5,-16 2093.5,-22 2093.5,-28 2093.5,-28 2093.5,-105 2093.5,-105 2093.5,-111 2087.5,-117 2081.5,-117"/>
<text text-anchor="start" x="2029" y="-63.8" font-family="Sans-Serif" font-weight="bold" font-size="14.00" fill="#ffffff">sled</text>
</g>
<!-- 5f82fcaae27c44afa9744768c7334a92&#45;&gt;630e34ac3d1040358a775d9bfb3cbdd3 -->
<g id="edge15" class="edge">
<title>5f82fcaae27c44afa9744768c7334a92&#45;&gt;630e34ac3d1040358a775d9bfb3cbdd3</title>
<path fill="none" stroke="#7b8894" d="M1949.77,-235C1991.23,-235 2043,-235 2043,-235 2043,-235 2043,-127.06 2043,-127.06"/>
<polygon fill="#7b8894" stroke="#7b8894" points="2046.5,-127.06 2043,-117.06 2039.5,-127.06 2046.5,-127.06"/>
<text text-anchor="middle" x="2046" y="-147.6" font-family="Sans-Serif" font-size="13.00" fill="#2d3436">计划使用</text>
</g>
</g>
</svg>
