<?xml version="1.0" encoding="UTF-8" standalone="no"?>
<!DOCTYPE svg PUBLIC "-//W3C//DTD SVG 1.1//EN"
 "http://www.w3.org/Graphics/SVG/1.1/DTD/svg11.dtd">
<!-- Generated by graphviz version 2.44.0 (20200408.0750)
 -->
<!-- Pages: 1 -->
<svg width="1053pt" height="2082pt"
 viewBox="0.00 0.00 1053.00 2082.00" xmlns="http://www.w3.org/2000/svg" xmlns:xlink="http://www.w3.org/1999/xlink">
<g id="graph0" class="graph" transform="scale(1 1) rotate(0) translate(144 1938)">
<polygon fill="white" stroke="transparent" points="-144,144 -144,-1938 909,-1938 909,144 -144,144"/>
<g id="clust4" class="cluster">
<title>cluster_grpc监听</title>
<path fill="#e5f5fd" stroke="#aeb6be" d="M341,-299C341,-299 741.5,-299 741.5,-299 747.5,-299 753.5,-305 753.5,-311 753.5,-311 753.5,-714 753.5,-714 753.5,-720 747.5,-726 741.5,-726 741.5,-726 341,-726 341,-726 335,-726 329,-720 329,-714 329,-714 329,-311 329,-311 329,-305 335,-299 341,-299"/>
<text text-anchor="middle" x="361" y="-712.4" font-family="Sans-Serif" font-size="12.00" fill="#2d3436">grpc监听</text>
</g>
<g id="clust5" class="cluster">
<title>cluster_持久化</title>
<path fill="#e5f5fd" stroke="#aeb6be" d="M341,-8C341,-8 705.5,-8 705.5,-8 711.5,-8 717.5,-14 717.5,-20 717.5,-20 717.5,-279 717.5,-279 717.5,-285 711.5,-291 705.5,-291 705.5,-291 341,-291 341,-291 335,-291 329,-285 329,-279 329,-279 329,-20 329,-20 329,-14 335,-8 341,-8"/>
<text text-anchor="middle" x="355.5" y="-277.4" font-family="Sans-Serif" font-size="12.00" fill="#2d3436">持久化</text>
</g>
<g id="clust3" class="cluster">
<title>cluster_HTTP长链接监听</title>
<path fill="#e5f5fd" stroke="#aeb6be" d="M341,-734C341,-734 745,-734 745,-734 751,-734 757,-740 757,-746 757,-746 757,-1149 757,-1149 757,-1155 751,-1161 745,-1161 745,-1161 341,-1161 341,-1161 335,-1161 329,-1155 329,-1149 329,-1149 329,-746 329,-746 329,-740 335,-734 341,-734"/>
<text text-anchor="middle" x="383.5" y="-1147.4" font-family="Sans-Serif" font-size="12.00" fill="#2d3436">HTTP长链接监听</text>
</g>
<g id="clust1" class="cluster">
<title>cluster_配置缓存</title>
<path fill="#e5f5fd" stroke="#aeb6be" d="M316,-1503C316,-1503 705.5,-1503 705.5,-1503 711.5,-1503 717.5,-1509 717.5,-1515 717.5,-1515 717.5,-1774 717.5,-1774 717.5,-1780 711.5,-1786 705.5,-1786 705.5,-1786 316,-1786 316,-1786 310,-1786 304,-1780 304,-1774 304,-1774 304,-1515 304,-1515 304,-1509 310,-1503 316,-1503"/>
<text text-anchor="middle" x="336.5" y="-1772.4" font-family="Sans-Serif" font-size="12.00" fill="#2d3436">配置缓存</text>
</g>
<g id="clust2" class="cluster">
<title>cluster_查询索引</title>
<path fill="#e5f5fd" stroke="#aeb6be" d="M341,-1169C341,-1169 705.5,-1169 705.5,-1169 711.5,-1169 717.5,-1175 717.5,-1181 717.5,-1181 717.5,-1483 717.5,-1483 717.5,-1489 711.5,-1495 705.5,-1495 705.5,-1495 341,-1495 341,-1495 335,-1495 329,-1489 329,-1483 329,-1483 329,-1181 329,-1181 329,-1175 335,-1169 341,-1169"/>
<text text-anchor="middle" x="361.5" y="-1481.4" font-family="Sans-Serif" font-size="12.00" fill="#2d3436">查询索引</text>
</g>
<!-- 93ef1309d4ea4d7d8c30eaf0a373054e -->
<g id="node1" class="node">
<title>93ef1309d4ea4d7d8c30eaf0a373054e</title>
<path fill="#5f76d2" stroke="black" stroke-width="0" d="M89,-1059.5C89,-1059.5 12,-1059.5 12,-1059.5 6,-1059.5 0,-1053.5 0,-1047.5 0,-1047.5 0,-970.5 0,-970.5 0,-964.5 6,-958.5 12,-958.5 12,-958.5 89,-958.5 89,-958.5 95,-958.5 101,-964.5 101,-970.5 101,-970.5 101,-1047.5 101,-1047.5 101,-1053.5 95,-1059.5 89,-1059.5"/>
<text text-anchor="start" x="4" y="-1006.3" font-family="Sans-Serif" font-weight="bold" font-size="14.00" fill="#ffffff">HTTP Request</text>
</g>
<!-- df11122368d7414581c8bc91bb7737cc -->
<g id="node3" class="node">
<title>df11122368d7414581c8bc91bb7737cc</title>
<path fill="#5f76d2" stroke="black" stroke-width="0" d="M245,-987.5C245,-987.5 168,-987.5 168,-987.5 162,-987.5 156,-981.5 156,-975.5 156,-975.5 156,-898.5 156,-898.5 156,-892.5 162,-886.5 168,-886.5 168,-886.5 245,-886.5 245,-886.5 251,-886.5 257,-892.5 257,-898.5 257,-898.5 257,-975.5 257,-975.5 257,-981.5 251,-987.5 245,-987.5"/>
<text text-anchor="start" x="167" y="-934.3" font-family="Sans-Serif" font-weight="bold" font-size="14.00" fill="#ffffff">ConfigActor</text>
</g>
<!-- 93ef1309d4ea4d7d8c30eaf0a373054e&#45;&gt;df11122368d7414581c8bc91bb7737cc -->
<g id="edge17" class="edge">
<title>93ef1309d4ea4d7d8c30eaf0a373054e&#45;&gt;df11122368d7414581c8bc91bb7737cc</title>
<path fill="none" stroke="#7b8894" d="M101.15,-973C101.15,-973 145.84,-973 145.84,-973"/>
<polygon fill="#7b8894" stroke="#7b8894" points="145.84,-976.5 155.84,-973 145.84,-969.5 145.84,-976.5"/>
</g>
<!-- 173b82fa6743476fa7521207e1f69072 -->
<g id="node2" class="node">
<title>173b82fa6743476fa7521207e1f69072</title>
<path fill="#5f76d2" stroke="black" stroke-width="0" d="M89,-915.5C89,-915.5 12,-915.5 12,-915.5 6,-915.5 0,-909.5 0,-903.5 0,-903.5 0,-826.5 0,-826.5 0,-820.5 6,-814.5 12,-814.5 12,-814.5 89,-814.5 89,-814.5 95,-814.5 101,-820.5 101,-826.5 101,-826.5 101,-903.5 101,-903.5 101,-909.5 95,-915.5 89,-915.5"/>
<text text-anchor="start" x="2" y="-862.3" font-family="Sans-Serif" font-weight="bold" font-size="14.00" fill="#ffffff">GRPC Reqeust</text>
</g>
<!-- 173b82fa6743476fa7521207e1f69072&#45;&gt;df11122368d7414581c8bc91bb7737cc -->
<g id="edge18" class="edge">
<title>173b82fa6743476fa7521207e1f69072&#45;&gt;df11122368d7414581c8bc91bb7737cc</title>
<path fill="none" stroke="#7b8894" d="M101.15,-901C101.15,-901 145.84,-901 145.84,-901"/>
<polygon fill="#7b8894" stroke="#7b8894" points="145.84,-904.5 155.84,-901 145.84,-897.5 145.84,-904.5"/>
</g>
<!-- 94d037cb5c564545b3aab876ce66389a -->
<g id="node4" class="node">
<title>94d037cb5c564545b3aab876ce66389a</title>
<path fill="#5f76d2" stroke="black" stroke-width="0" d="M451,-1612.5C451,-1612.5 324,-1612.5 324,-1612.5 318,-1612.5 312,-1606.5 312,-1600.5 312,-1600.5 312,-1523.5 312,-1523.5 312,-1517.5 318,-1511.5 324,-1511.5 324,-1511.5 451,-1511.5 451,-1511.5 457,-1511.5 463,-1517.5 463,-1523.5 463,-1523.5 463,-1600.5 463,-1600.5 463,-1606.5 457,-1612.5 451,-1612.5"/>
<text text-anchor="start" x="331.5" y="-1559.3" font-family="Sans-Serif" font-weight="bold" font-size="14.00" fill="#ffffff">ConfigCacheMap</text>
</g>
<!-- df11122368d7414581c8bc91bb7737cc&#45;&gt;94d037cb5c564545b3aab876ce66389a -->
<g id="edge19" class="edge">
<title>df11122368d7414581c8bc91bb7737cc&#45;&gt;94d037cb5c564545b3aab876ce66389a</title>
<path fill="none" stroke="#7b8894" d="M257.1,-953.83C289.31,-953.83 325,-953.83 325,-953.83 325,-953.83 325,-1501.45 325,-1501.45"/>
<polygon fill="#7b8894" stroke="#7b8894" points="321.5,-1501.45 325,-1511.45 328.5,-1501.45 321.5,-1501.45"/>
</g>
<!-- 7afe417ffaa94c71bd28a6c382d19d2f -->
<g id="node7" class="node">
<title>7afe417ffaa94c71bd28a6c382d19d2f</title>
<path fill="#5f76d2" stroke="black" stroke-width="0" d="M426,-1465.5C426,-1465.5 349,-1465.5 349,-1465.5 343,-1465.5 337,-1459.5 337,-1453.5 337,-1453.5 337,-1376.5 337,-1376.5 337,-1370.5 343,-1364.5 349,-1364.5 349,-1364.5 426,-1364.5 426,-1364.5 432,-1364.5 438,-1370.5 438,-1376.5 438,-1376.5 438,-1453.5 438,-1453.5 438,-1459.5 432,-1465.5 426,-1465.5"/>
<text text-anchor="start" x="347.5" y="-1428.3" font-family="Sans-Serif" font-weight="bold" font-size="14.00" fill="#ffffff">TenantIndex</text>
<text text-anchor="start" x="361.5" y="-1405.7" font-family="Sans-Serif" font-size="11.00" fill="#ffffff">[内存索引]</text>
<text text-anchor="start" x="345" y="-1394.7" font-family="Sans-Serif" font-size="11.00" fill="#ffffff">[支持控制台查询]</text>
</g>
<!-- df11122368d7414581c8bc91bb7737cc&#45;&gt;7afe417ffaa94c71bd28a6c382d19d2f -->
<g id="edge20" class="edge">
<title>df11122368d7414581c8bc91bb7737cc&#45;&gt;7afe417ffaa94c71bd28a6c382d19d2f</title>
<path fill="none" stroke="#7b8894" d="M207,-987.7C207,-1110.72 207,-1415 207,-1415 207,-1415 326.74,-1415 326.74,-1415"/>
<polygon fill="#7b8894" stroke="#7b8894" points="326.74,-1418.5 336.74,-1415 326.74,-1411.5 326.74,-1418.5"/>
</g>
<!-- 4781fb677ad04e2fb569da7d2aca5721 -->
<g id="node10" class="node">
<title>4781fb677ad04e2fb569da7d2aca5721</title>
<path fill="#5f76d2" stroke="black" stroke-width="0" d="M426,-987.5C426,-987.5 349,-987.5 349,-987.5 343,-987.5 337,-981.5 337,-975.5 337,-975.5 337,-898.5 337,-898.5 337,-892.5 343,-886.5 349,-886.5 349,-886.5 426,-886.5 426,-886.5 432,-886.5 438,-892.5 438,-898.5 438,-898.5 438,-975.5 438,-975.5 438,-981.5 432,-987.5 426,-987.5"/>
<text text-anchor="start" x="339.5" y="-934.3" font-family="Sans-Serif" font-weight="bold" font-size="14.00" fill="#ffffff">ConfigListener</text>
</g>
<!-- df11122368d7414581c8bc91bb7737cc&#45;&gt;4781fb677ad04e2fb569da7d2aca5721 -->
<g id="edge6" class="edge">
<title>df11122368d7414581c8bc91bb7737cc&#45;&gt;4781fb677ad04e2fb569da7d2aca5721</title>
<path fill="none" stroke="#7b8894" d="M257.4,-920.17C257.4,-920.17 326.98,-920.17 326.98,-920.17"/>
<polygon fill="#7b8894" stroke="#7b8894" points="326.98,-923.67 336.98,-920.17 326.98,-916.67 326.98,-923.67"/>
</g>
<!-- 55cb3619557c486a98f66e62e7f8ad40 -->
<g id="node14" class="node">
<title>55cb3619557c486a98f66e62e7f8ad40</title>
<path fill="#5f76d2" stroke="black" stroke-width="0" d="M426,-623.5C426,-623.5 349,-623.5 349,-623.5 343,-623.5 337,-617.5 337,-611.5 337,-611.5 337,-534.5 337,-534.5 337,-528.5 343,-522.5 349,-522.5 349,-522.5 426,-522.5 426,-522.5 432,-522.5 438,-528.5 438,-534.5 438,-534.5 438,-611.5 438,-611.5 438,-617.5 432,-623.5 426,-623.5"/>
<text text-anchor="start" x="352" y="-570.3" font-family="Sans-Serif" font-weight="bold" font-size="14.00" fill="#ffffff">Subscriber</text>
</g>
<!-- df11122368d7414581c8bc91bb7737cc&#45;&gt;55cb3619557c486a98f66e62e7f8ad40 -->
<g id="edge10" class="edge">
<title>df11122368d7414581c8bc91bb7737cc&#45;&gt;55cb3619557c486a98f66e62e7f8ad40</title>
<path fill="none" stroke="#7b8894" d="M224,-886.39C224,-786.37 224,-573 224,-573 224,-573 326.66,-573 326.66,-573"/>
<polygon fill="#7b8894" stroke="#7b8894" points="326.66,-576.5 336.66,-573 326.66,-569.5 326.66,-576.5"/>
</g>
<!-- e9e905d442f7429089d1a8a718d6f8f1 -->
<g id="node18" class="node">
<title>e9e905d442f7429089d1a8a718d6f8f1</title>
<path fill="#5f76d2" stroke="black" stroke-width="0" d="M426,-261.5C426,-261.5 349,-261.5 349,-261.5 343,-261.5 337,-255.5 337,-249.5 337,-249.5 337,-172.5 337,-172.5 337,-166.5 343,-160.5 349,-160.5 349,-160.5 426,-160.5 426,-160.5 432,-160.5 438,-166.5 438,-172.5 438,-172.5 438,-249.5 438,-249.5 438,-255.5 432,-261.5 426,-261.5"/>
<text text-anchor="start" x="356" y="-208.3" font-family="Sans-Serif" font-weight="bold" font-size="14.00" fill="#ffffff">ConfigDB</text>
</g>
<!-- df11122368d7414581c8bc91bb7737cc&#45;&gt;e9e905d442f7429089d1a8a718d6f8f1 -->
<g id="edge16" class="edge">
<title>df11122368d7414581c8bc91bb7737cc&#45;&gt;e9e905d442f7429089d1a8a718d6f8f1</title>
<path fill="none" stroke="#7b8894" d="M190,-886.24C190,-721.29 190,-211 190,-211 190,-211 326.9,-211 326.9,-211"/>
<polygon fill="#7b8894" stroke="#7b8894" points="326.9,-214.5 336.9,-211 326.9,-207.5 326.9,-214.5"/>
</g>
<!-- 0a0c7f221eb244158aca74eff97f0996 -->
<g id="node5" class="node">
<title>0a0c7f221eb244158aca74eff97f0996</title>
<path fill="#5f76d2" stroke="black" stroke-width="0" d="M697.5,-1612.5C697.5,-1612.5 620.5,-1612.5 620.5,-1612.5 614.5,-1612.5 608.5,-1606.5 608.5,-1600.5 608.5,-1600.5 608.5,-1523.5 608.5,-1523.5 608.5,-1517.5 614.5,-1511.5 620.5,-1511.5 620.5,-1511.5 697.5,-1511.5 697.5,-1511.5 703.5,-1511.5 709.5,-1517.5 709.5,-1523.5 709.5,-1523.5 709.5,-1600.5 709.5,-1600.5 709.5,-1606.5 703.5,-1612.5 697.5,-1612.5"/>
<text text-anchor="start" x="625" y="-1580.8" font-family="Sans-Serif" font-weight="bold" font-size="14.00" fill="#ffffff">ConfigKey</text>
<text text-anchor="start" x="643.5" y="-1558.2" font-family="Sans-Serif" font-size="11.00" fill="#ffffff">tenant</text>
<text text-anchor="start" x="645" y="-1547.2" font-family="Sans-Serif" font-size="11.00" fill="#ffffff">group</text>
<text text-anchor="start" x="641" y="-1536.2" font-family="Sans-Serif" font-size="11.00" fill="#ffffff">data_id</text>
</g>
<!-- 94d037cb5c564545b3aab876ce66389a&#45;&gt;0a0c7f221eb244158aca74eff97f0996 -->
<g id="edge1" class="edge">
<title>94d037cb5c564545b3aab876ce66389a&#45;&gt;0a0c7f221eb244158aca74eff97f0996</title>
<path fill="none" stroke="#7b8894" d="M463.13,-1562C463.13,-1562 598.21,-1562 598.21,-1562"/>
<polygon fill="#7b8894" stroke="#7b8894" points="598.21,-1565.5 608.21,-1562 598.21,-1558.5 598.21,-1565.5"/>
</g>
<!-- 5148df0282d147579c7b721fee187b63 -->
<g id="node6" class="node">
<title>5148df0282d147579c7b721fee187b63</title>
<path fill="#5f76d2" stroke="black" stroke-width="0" d="M697.5,-1756.5C697.5,-1756.5 620.5,-1756.5 620.5,-1756.5 614.5,-1756.5 608.5,-1750.5 608.5,-1744.5 608.5,-1744.5 608.5,-1667.5 608.5,-1667.5 608.5,-1661.5 614.5,-1655.5 620.5,-1655.5 620.5,-1655.5 697.5,-1655.5 697.5,-1655.5 703.5,-1655.5 709.5,-1661.5 709.5,-1667.5 709.5,-1667.5 709.5,-1744.5 709.5,-1744.5 709.5,-1750.5 703.5,-1756.5 697.5,-1756.5"/>
<text text-anchor="start" x="619.5" y="-1719.3" font-family="Sans-Serif" font-weight="bold" font-size="14.00" fill="#ffffff">ConfigValue</text>
<text text-anchor="start" x="641" y="-1696.7" font-family="Sans-Serif" font-size="11.00" fill="#ffffff">content</text>
<text text-anchor="start" x="648" y="-1685.7" font-family="Sans-Serif" font-size="11.00" fill="#ffffff">md5</text>
</g>
<!-- 94d037cb5c564545b3aab876ce66389a&#45;&gt;5148df0282d147579c7b721fee187b63 -->
<g id="edge2" class="edge">
<title>94d037cb5c564545b3aab876ce66389a&#45;&gt;5148df0282d147579c7b721fee187b63</title>
<path fill="none" stroke="#7b8894" d="M388,-1612.77C388,-1654.23 388,-1706 388,-1706 388,-1706 598.34,-1706 598.34,-1706"/>
<polygon fill="#7b8894" stroke="#7b8894" points="598.34,-1709.5 608.34,-1706 598.34,-1702.5 598.34,-1709.5"/>
</g>
<!-- 762a4668323d4c68a30c16bbdd0e99c8 -->
<g id="node8" class="node">
<title>762a4668323d4c68a30c16bbdd0e99c8</title>
<path fill="#5f76d2" stroke="black" stroke-width="0" d="M426,-1278.5C426,-1278.5 349,-1278.5 349,-1278.5 343,-1278.5 337,-1272.5 337,-1266.5 337,-1266.5 337,-1189.5 337,-1189.5 337,-1183.5 343,-1177.5 349,-1177.5 349,-1177.5 426,-1177.5 426,-1177.5 432,-1177.5 438,-1183.5 438,-1189.5 438,-1189.5 438,-1266.5 438,-1266.5 438,-1272.5 432,-1278.5 426,-1278.5"/>
<text text-anchor="start" x="348" y="-1225.3" font-family="Sans-Serif" font-weight="bold" font-size="14.00" fill="#ffffff">ConfigIndex</text>
</g>
<!-- 7afe417ffaa94c71bd28a6c382d19d2f&#45;&gt;762a4668323d4c68a30c16bbdd0e99c8 -->
<g id="edge3" class="edge">
<title>7afe417ffaa94c71bd28a6c382d19d2f&#45;&gt;762a4668323d4c68a30c16bbdd0e99c8</title>
<path fill="none" stroke="#7b8894" d="M388,-1364.4C388,-1364.4 388,-1288.65 388,-1288.65"/>
<polygon fill="#7b8894" stroke="#7b8894" points="391.5,-1288.65 388,-1278.65 384.5,-1288.65 391.5,-1288.65"/>
</g>
<!-- 06d04254588840d59ea973eb7686675f -->
<g id="node9" class="node">
<title>06d04254588840d59ea973eb7686675f</title>
<path fill="#5f76d2" stroke="black" stroke-width="0" d="M697.5,-1372.5C697.5,-1372.5 620.5,-1372.5 620.5,-1372.5 614.5,-1372.5 608.5,-1366.5 608.5,-1360.5 608.5,-1360.5 608.5,-1283.5 608.5,-1283.5 608.5,-1277.5 614.5,-1271.5 620.5,-1271.5 620.5,-1271.5 697.5,-1271.5 697.5,-1271.5 703.5,-1271.5 709.5,-1277.5 709.5,-1283.5 709.5,-1283.5 709.5,-1360.5 709.5,-1360.5 709.5,-1366.5 703.5,-1372.5 697.5,-1372.5"/>
<text text-anchor="start" x="625.5" y="-1319.3" font-family="Sans-Serif" font-weight="bold" font-size="14.00" fill="#ffffff">BTreeMap</text>
</g>
<!-- 7afe417ffaa94c71bd28a6c382d19d2f&#45;&gt;06d04254588840d59ea973eb7686675f -->
<g id="edge5" class="edge">
<title>7afe417ffaa94c71bd28a6c382d19d2f&#45;&gt;06d04254588840d59ea973eb7686675f</title>
<path fill="none" stroke="#7b8894" d="M438.25,-1368.5C438.25,-1368.5 598.04,-1368.5 598.04,-1368.5"/>
<polygon fill="#7b8894" stroke="#7b8894" points="598.04,-1372 608.04,-1368.5 598.04,-1365 598.04,-1372"/>
</g>
<!-- 762a4668323d4c68a30c16bbdd0e99c8&#45;&gt;06d04254588840d59ea973eb7686675f -->
<g id="edge4" class="edge">
<title>762a4668323d4c68a30c16bbdd0e99c8&#45;&gt;06d04254588840d59ea973eb7686675f</title>
<path fill="none" stroke="#7b8894" d="M438.25,-1275C438.25,-1275 598.04,-1275 598.04,-1275"/>
<polygon fill="#7b8894" stroke="#7b8894" points="598.04,-1278.5 608.04,-1275 598.04,-1271.5 598.04,-1278.5"/>
</g>
<!-- 4640a678da7c41149f9e08c353acb55a -->
<g id="node11" class="node">
<title>4640a678da7c41149f9e08c353acb55a</title>
<path fill="#5f76d2" stroke="black" stroke-width="0" d="M726,-843.5C726,-843.5 592,-843.5 592,-843.5 586,-843.5 580,-837.5 580,-831.5 580,-831.5 580,-754.5 580,-754.5 580,-748.5 586,-742.5 592,-742.5 592,-742.5 726,-742.5 726,-742.5 732,-742.5 738,-748.5 738,-754.5 738,-754.5 738,-831.5 738,-831.5 738,-837.5 732,-843.5 726,-843.5"/>
<text text-anchor="start" x="619" y="-800.8" font-family="Sans-Serif" font-weight="bold" font-size="14.00" fill="#ffffff">listener Map</text>
<text text-anchor="start" x="597.5" y="-778.2" font-family="Sans-Serif" font-size="11.00" fill="#ffffff">[&lt;ConfigKey,Vec&lt;u64&gt;&gt;]</text>
</g>
<!-- 4781fb677ad04e2fb569da7d2aca5721&#45;&gt;4640a678da7c41149f9e08c353acb55a -->
<g id="edge7" class="edge">
<title>4781fb677ad04e2fb569da7d2aca5721&#45;&gt;4640a678da7c41149f9e08c353acb55a</title>
<path fill="none" stroke="#7b8894" d="M388,-886.48C388,-858.37 388,-829 388,-829 388,-829 569.89,-829 569.89,-829"/>
<polygon fill="#7b8894" stroke="#7b8894" points="569.89,-832.5 579.89,-829 569.89,-825.5 569.89,-832.5"/>
</g>
<!-- ca1155396a7a41fcbbfd30f765e1a5a9 -->
<g id="node12" class="node">
<title>ca1155396a7a41fcbbfd30f765e1a5a9</title>
<path fill="#5f76d2" stroke="black" stroke-width="0" d="M737,-987.5C737,-987.5 581,-987.5 581,-987.5 575,-987.5 569,-981.5 569,-975.5 569,-975.5 569,-898.5 569,-898.5 569,-892.5 575,-886.5 581,-886.5 581,-886.5 737,-886.5 737,-886.5 743,-886.5 749,-892.5 749,-898.5 749,-898.5 749,-975.5 749,-975.5 749,-981.5 743,-987.5 737,-987.5"/>
<text text-anchor="start" x="601" y="-950.3" font-family="Sans-Serif" font-weight="bold" font-size="14.00" fill="#ffffff">time_listener Map</text>
<text text-anchor="start" x="592.5" y="-927.7" font-family="Sans-Serif" font-size="11.00" fill="#ffffff">[&lt;i64,Vec&lt;OnceListener&gt;&gt;]</text>
<text text-anchor="start" x="633" y="-916.7" font-family="Sans-Serif" font-size="11.00" fill="#ffffff">[超时返回]</text>
</g>
<!-- 4781fb677ad04e2fb569da7d2aca5721&#45;&gt;ca1155396a7a41fcbbfd30f765e1a5a9 -->
<g id="edge8" class="edge">
<title>4781fb677ad04e2fb569da7d2aca5721&#45;&gt;ca1155396a7a41fcbbfd30f765e1a5a9</title>
<path fill="none" stroke="#7b8894" d="M438.25,-937C438.25,-937 558.93,-937 558.93,-937"/>
<polygon fill="#7b8894" stroke="#7b8894" points="558.93,-940.5 568.93,-937 558.93,-933.5 558.93,-940.5"/>
</g>
<!-- 59dac69f24ec4382b9f6720069e58b1c -->
<g id="node13" class="node">
<title>59dac69f24ec4382b9f6720069e58b1c</title>
<path fill="#5f76d2" stroke="black" stroke-width="0" d="M726,-1131.5C726,-1131.5 592,-1131.5 592,-1131.5 586,-1131.5 580,-1125.5 580,-1119.5 580,-1119.5 580,-1042.5 580,-1042.5 580,-1036.5 586,-1030.5 592,-1030.5 592,-1030.5 726,-1030.5 726,-1030.5 732,-1030.5 738,-1036.5 738,-1042.5 738,-1042.5 738,-1119.5 738,-1119.5 738,-1125.5 732,-1131.5 726,-1131.5"/>
<text text-anchor="start" x="621" y="-1094.3" font-family="Sans-Serif" font-weight="bold" font-size="14.00" fill="#ffffff">sender Map</text>
<text text-anchor="start" x="589.5" y="-1071.7" font-family="Sans-Serif" font-size="11.00" fill="#ffffff">[&lt;u64,ListenerSenderType&gt;]</text>
<text text-anchor="start" x="627.5" y="-1060.7" font-family="Sans-Serif" font-size="11.00" fill="#ffffff">[监听发送器]</text>
</g>
<!-- 4781fb677ad04e2fb569da7d2aca5721&#45;&gt;59dac69f24ec4382b9f6720069e58b1c -->
<g id="edge9" class="edge">
<title>4781fb677ad04e2fb569da7d2aca5721&#45;&gt;59dac69f24ec4382b9f6720069e58b1c</title>
<path fill="none" stroke="#7b8894" d="M388,-987.52C388,-1015.63 388,-1045 388,-1045 388,-1045 569.89,-1045 569.89,-1045"/>
<polygon fill="#7b8894" stroke="#7b8894" points="569.89,-1048.5 579.89,-1045 569.89,-1041.5 569.89,-1048.5"/>
</g>
<!-- 7620c81e828741b083863c1b3ef8c878 -->
<g id="node15" class="node">
<title>7620c81e828741b083863c1b3ef8c878</title>
<path fill="#5f76d2" stroke="black" stroke-width="0" d="M726,-408.5C726,-408.5 592,-408.5 592,-408.5 586,-408.5 580,-402.5 580,-396.5 580,-396.5 580,-319.5 580,-319.5 580,-313.5 586,-307.5 592,-307.5 592,-307.5 726,-307.5 726,-307.5 732,-307.5 738,-313.5 738,-319.5 738,-319.5 738,-396.5 738,-396.5 738,-402.5 732,-408.5 726,-408.5"/>
<text text-anchor="start" x="619" y="-371.3" font-family="Sans-Serif" font-weight="bold" font-size="14.00" fill="#ffffff">listener Map</text>
<text text-anchor="start" x="595.5" y="-348.7" font-family="Sans-Serif" font-size="11.00" fill="#ffffff">[&lt;ConfigKey,ClientIdSet&gt;]</text>
<text text-anchor="start" x="599.5" y="-337.7" font-family="Sans-Serif" font-size="11.00" fill="#ffffff">[配置变更通知监听列表]</text>
</g>
<!-- 55cb3619557c486a98f66e62e7f8ad40&#45;&gt;7620c81e828741b083863c1b3ef8c878 -->
<g id="edge11" class="edge">
<title>55cb3619557c486a98f66e62e7f8ad40&#45;&gt;7620c81e828741b083863c1b3ef8c878</title>
<path fill="none" stroke="#7b8894" d="M388,-522.32C388,-458.76 388,-358 388,-358 388,-358 569.89,-358 569.89,-358"/>
<polygon fill="#7b8894" stroke="#7b8894" points="569.89,-361.5 579.89,-358 569.89,-354.5 569.89,-361.5"/>
</g>
<!-- 1ff29d8b118b4cefbba096110652572c -->
<g id="node16" class="node">
<title>1ff29d8b118b4cefbba096110652572c</title>
<path fill="#5f76d2" stroke="black" stroke-width="0" d="M733.5,-552.5C733.5,-552.5 584.5,-552.5 584.5,-552.5 578.5,-552.5 572.5,-546.5 572.5,-540.5 572.5,-540.5 572.5,-463.5 572.5,-463.5 572.5,-457.5 578.5,-451.5 584.5,-451.5 584.5,-451.5 733.5,-451.5 733.5,-451.5 739.5,-451.5 745.5,-457.5 745.5,-463.5 745.5,-463.5 745.5,-540.5 745.5,-540.5 745.5,-546.5 739.5,-552.5 733.5,-552.5"/>
<text text-anchor="start" x="606.5" y="-515.3" font-family="Sans-Serif" font-weight="bold" font-size="14.00" fill="#ffffff">client_keys Map</text>
<text text-anchor="start" x="595.5" y="-492.7" font-family="Sans-Serif" font-size="11.00" fill="#ffffff">[&lt;ClientId,ConfigKeySet&gt;]</text>
<text text-anchor="start" x="588" y="-481.7" font-family="Sans-Serif" font-size="11.00" fill="#ffffff">[监听器断开后取消对应监听]</text>
</g>
<!-- 55cb3619557c486a98f66e62e7f8ad40&#45;&gt;1ff29d8b118b4cefbba096110652572c -->
<g id="edge12" class="edge">
<title>55cb3619557c486a98f66e62e7f8ad40&#45;&gt;1ff29d8b118b4cefbba096110652572c</title>
<path fill="none" stroke="#7b8894" d="M438.25,-537.5C438.25,-537.5 562.46,-537.5 562.46,-537.5"/>
<polygon fill="#7b8894" stroke="#7b8894" points="562.46,-541 572.46,-537.5 562.46,-534 562.46,-541"/>
</g>
<!-- ab44892f853346f4b9dac64986012d50 -->
<g id="node17" class="node">
<title>ab44892f853346f4b9dac64986012d50</title>
<path fill="#5f76d2" stroke="black" stroke-width="0" d="M726,-696.5C726,-696.5 592,-696.5 592,-696.5 586,-696.5 580,-690.5 580,-684.5 580,-684.5 580,-607.5 580,-607.5 580,-601.5 586,-595.5 592,-595.5 592,-595.5 726,-595.5 726,-595.5 732,-595.5 738,-601.5 738,-607.5 738,-607.5 738,-684.5 738,-684.5 738,-690.5 732,-696.5 726,-696.5"/>
<text text-anchor="start" x="596.5" y="-653.8" font-family="Sans-Serif" font-weight="bold" font-size="14.00" fill="#ffffff">conn_manage addr</text>
<text text-anchor="start" x="622" y="-631.2" font-family="Sans-Serif" font-size="11.00" fill="#ffffff">[变更通知通道]</text>
</g>
<!-- 55cb3619557c486a98f66e62e7f8ad40&#45;&gt;ab44892f853346f4b9dac64986012d50 -->
<g id="edge13" class="edge">
<title>55cb3619557c486a98f66e62e7f8ad40&#45;&gt;ab44892f853346f4b9dac64986012d50</title>
<path fill="none" stroke="#7b8894" d="M438.25,-609.5C438.25,-609.5 569.95,-609.5 569.95,-609.5"/>
<polygon fill="#7b8894" stroke="#7b8894" points="569.95,-613 579.95,-609.5 569.95,-606 569.95,-613"/>
</g>
<!-- e35f1bd552a04657b29f899a79580060 -->
<g id="node19" class="node">
<title>e35f1bd552a04657b29f899a79580060</title>
<path fill="#5f76d2" stroke="black" stroke-width="0" d="M697.5,-117.5C697.5,-117.5 620.5,-117.5 620.5,-117.5 614.5,-117.5 608.5,-111.5 608.5,-105.5 608.5,-105.5 608.5,-28.5 608.5,-28.5 608.5,-22.5 614.5,-16.5 620.5,-16.5 620.5,-16.5 697.5,-16.5 697.5,-16.5 703.5,-16.5 709.5,-22.5 709.5,-28.5 709.5,-28.5 709.5,-105.5 709.5,-105.5 709.5,-111.5 703.5,-117.5 697.5,-117.5"/>
<text text-anchor="start" x="641" y="-64.3" font-family="Sans-Serif" font-weight="bold" font-size="14.00" fill="#ffffff">sqlite</text>
</g>
<!-- e9e905d442f7429089d1a8a718d6f8f1&#45;&gt;e35f1bd552a04657b29f899a79580060 -->
<g id="edge14" class="edge">
<title>e9e905d442f7429089d1a8a718d6f8f1&#45;&gt;e35f1bd552a04657b29f899a79580060</title>
<path fill="none" stroke="#7b8894" d="M388,-160.23C388,-118.77 388,-67 388,-67 388,-67 598.34,-67 598.34,-67"/>
<polygon fill="#7b8894" stroke="#7b8894" points="598.34,-70.5 608.34,-67 598.34,-63.5 598.34,-70.5"/>
<text text-anchor="middle" x="516" y="-111.6" font-family="Sans-Serif" font-size="13.00" fill="#2d3436">当前使用</text>
</g>
<!-- b9898086298641189454cce78680ddde -->
<g id="node20" class="node">
<title>b9898086298641189454cce78680ddde</title>
<path fill="#5f76d2" stroke="black" stroke-width="0" d="M697.5,-261.5C697.5,-261.5 620.5,-261.5 620.5,-261.5 614.5,-261.5 608.5,-255.5 608.5,-249.5 608.5,-249.5 608.5,-172.5 608.5,-172.5 608.5,-166.5 614.5,-160.5 620.5,-160.5 620.5,-160.5 697.5,-160.5 697.5,-160.5 703.5,-160.5 709.5,-166.5 709.5,-172.5 709.5,-172.5 709.5,-249.5 709.5,-249.5 709.5,-255.5 703.5,-261.5 697.5,-261.5"/>
<text text-anchor="start" x="645" y="-208.3" font-family="Sans-Serif" font-weight="bold" font-size="14.00" fill="#ffffff">sled</text>
</g>
<!-- e9e905d442f7429089d1a8a718d6f8f1&#45;&gt;b9898086298641189454cce78680ddde -->
<g id="edge15" class="edge">
<title>e9e905d442f7429089d1a8a718d6f8f1&#45;&gt;b9898086298641189454cce78680ddde</title>
<path fill="none" stroke="#7b8894" d="M438.25,-211C438.25,-211 598.04,-211 598.04,-211"/>
<polygon fill="#7b8894" stroke="#7b8894" points="598.04,-214.5 608.04,-211 598.04,-207.5 598.04,-214.5"/>
<text text-anchor="middle" x="516" y="-214.6" font-family="Sans-Serif" font-size="13.00" fill="#2d3436">计划使用</text>
</g>
</g>
</svg>
